<svg version="1.1" id="Layer_1" xmlns="http://www.w3.org/2000/svg" xmlns:xlink="http://www.w3.org/1999/xlink" x="0px" y="0px"
	 width="100%" viewBox="0 0 500 500" enable-background="new 0 0 500 500" xml:space="preserve">
<path fill="#000000" opacity="1.000000" stroke="none" 
	d="
M293.000000,501.000000 
	C195.333359,501.000000 98.166710,501.000000 1.000052,501.000000 
	C1.000035,334.333405 1.000035,167.666794 1.000017,1.000142 
	C167.666565,1.000094 334.333130,1.000094 500.999756,1.000047 
	C500.999847,167.666519 500.999847,334.333038 500.999939,500.999786 
	C431.833344,501.000000 362.666656,501.000000 293.000000,501.000000 
M77.094597,370.424194 
	C77.720436,372.144989 78.317291,373.877014 78.976456,375.584930 
	C89.091934,401.794800 104.916054,423.891388 128.720978,438.989166 
	C175.153992,468.438446 223.738480,469.822327 272.179779,445.002167 
	C308.452454,426.416962 343.548187,405.519531 378.986176,385.332520 
	C386.756256,380.906342 394.149292,375.602661 401.044159,369.891968 
	C435.876221,341.042542 456.488098,304.145416 458.521912,258.817841 
	C461.070068,202.026474 437.075806,157.844238 388.484741,128.528763 
	C354.726776,108.162224 319.533936,90.178474 285.045746,71.015724 
	C271.326996,63.393166 257.361816,56.336189 242.096191,52.421848 
	C192.251266,39.640854 147.380981,48.068413 109.157578,84.134399 
	C103.081070,89.867928 103.612259,93.416878 111.048187,97.411552 
	C154.164795,120.574295 197.294510,143.712631 240.403702,166.889130 
	C271.195496,183.443527 302.052368,199.880081 332.708038,216.683273 
	C353.086182,227.853043 359.482605,247.073517 350.561493,268.533234 
	C345.410248,280.924561 336.236725,289.632080 324.773895,296.094543 
	C292.723389,314.164032 260.648621,332.190826 228.528000,350.135254 
	C224.772995,352.232971 220.820480,354.254639 216.704941,355.382874 
	C195.472488,361.203369 179.385330,353.573822 174.816437,331.079559 
	C174.288483,328.480347 173.908249,325.810730 173.846466,323.164734 
	C173.655945,315.004089 173.611099,306.839142 173.585648,298.675659 
	C173.530029,280.833832 170.502350,263.596588 163.740997,247.006134 
	C147.547760,207.272522 114.309860,186.438110 77.757492,169.311249 
	C74.011597,167.556091 70.261978,169.928375 69.565941,174.112350 
	C69.023430,177.373444 69.016426,180.747147 69.014084,184.070999 
	C68.982002,229.561157 68.946419,275.051392 69.015785,320.541473 
	C69.041359,337.309143 71.699745,353.696930 77.094597,370.424194 
M214.835175,204.313004 
	C197.907547,214.418518 188.088577,229.001801 187.447296,248.973862 
	C186.752945,270.599030 196.123779,287.202454 214.886459,297.493378 
	C234.072266,308.016357 253.618347,306.762207 271.338989,293.870239 
	C289.257324,280.834442 296.215515,262.447296 292.112762,240.749252 
	C285.462860,205.579941 248.202164,187.954269 214.835175,204.313004 
z"/>
<path fill="#00BB61" opacity="1.000000" stroke="none" 
	d="
M76.991051,370.041260 
	C71.699745,353.696930 69.041359,337.309143 69.015785,320.541473 
	C68.946419,275.051392 68.982002,229.561157 69.014084,184.070999 
	C69.016426,180.747147 69.023430,177.373444 69.565941,174.112350 
	C70.261978,169.928375 74.011597,167.556091 77.757492,169.311249 
	C114.309860,186.438110 147.547760,207.272522 163.740997,247.006134 
	C170.502350,263.596588 173.530029,280.833832 173.585648,298.675659 
	C173.611099,306.839142 173.655945,315.004089 173.846466,323.164734 
	C173.908249,325.810730 174.288483,328.480347 174.816437,331.079559 
	C179.385330,353.573822 195.472488,361.203369 216.704941,355.382874 
	C220.820480,354.254639 224.772995,352.232971 228.528000,350.135254 
	C260.648621,332.190826 292.723389,314.164032 324.773895,296.094543 
	C336.236725,289.632080 345.410248,280.924561 350.561493,268.533234 
	C359.482605,247.073517 353.086182,227.853043 332.708038,216.683273 
	C302.052368,199.880081 271.195496,183.443527 240.403702,166.889130 
	C197.294510,143.712631 154.164795,120.574295 111.048187,97.411552 
	C103.612259,93.416878 103.081070,89.867928 109.157578,84.134399 
	C147.380981,48.068413 192.251266,39.640854 242.096191,52.421848 
	C257.361816,56.336189 271.326996,63.393166 285.045746,71.015724 
	C319.533936,90.178474 354.726776,108.162224 388.484741,128.528763 
	C437.075806,157.844238 461.070068,202.026474 458.521912,258.817841 
	C456.488098,304.145416 435.876221,341.042542 401.044159,369.891968 
	C394.149292,375.602661 386.756256,380.906342 378.986176,385.332520 
	C343.548187,405.519531 308.452454,426.416962 272.179779,445.002167 
	C223.738480,469.822327 175.153992,468.438446 128.720978,438.989166 
	C104.916054,423.891388 89.091934,401.794800 78.976456,375.584930 
	C78.317291,373.877014 77.720436,372.144989 76.991051,370.041260 
M81.282684,202.503082 
	C81.282715,239.666306 80.973732,276.833527 81.452835,313.990540 
	C81.617287,326.744537 82.486351,339.752014 85.220100,352.162018 
	C94.072105,392.346313 116.574852,422.433716 154.788651,439.114532 
	C191.778793,455.261169 229.001541,453.098663 264.324219,434.815643 
	C302.302246,415.158295 339.473114,393.874359 376.413971,372.303131 
	C402.209412,357.240234 421.171936,335.333435 433.859283,308.102722 
	C462.915314,245.740280 441.238831,174.049942 382.068207,138.946747 
	C360.313721,126.040810 337.906097,114.223640 315.655731,102.169495 
	C295.901947,91.467857 276.498962,79.879623 255.973175,70.893799 
	C217.525848,54.062229 178.919022,54.596336 141.519272,75.009949 
	C134.750702,78.704384 128.625443,83.577454 121.449303,88.414558 
	C123.965134,89.967247 125.293076,90.885506 126.706406,91.644814 
	C179.068390,119.776276 231.463669,147.845886 283.794159,176.035797 
	C303.726471,186.773148 323.888855,197.158478 343.256195,208.847809 
	C361.524841,219.873962 369.126099,237.027679 366.145844,258.275604 
	C363.242126,278.977570 351.698212,294.131104 334.196228,304.843262 
	C324.119720,311.010651 313.665894,316.564880 303.345551,322.329987 
	C278.345551,336.295319 253.396576,350.354889 228.269958,364.089020 
	C220.104141,368.552429 210.998672,370.435577 201.701248,369.501984 
	C178.881699,367.210571 164.489716,353.246399 162.178574,330.333466 
	C160.945572,318.109283 161.504272,305.713989 160.963623,293.408691 
	C159.204391,253.369476 142.043060,221.844849 108.294983,199.885132 
	C100.025620,194.504303 91.050262,190.208450 81.282867,184.794891 
	C81.282867,191.309341 81.282867,196.407410 81.282684,202.503082 
z"/>
<path fill="#01BE63" opacity="1.000000" stroke="none" 
	d="
M215.170074,204.153824 
	C248.202164,187.954269 285.462860,205.579941 292.112762,240.749252 
	C296.215515,262.447296 289.257324,280.834442 271.338989,293.870239 
	C253.618347,306.762207 234.072266,308.016357 214.886459,297.493378 
	C196.123779,287.202454 186.752945,270.599030 187.447296,248.973862 
	C188.088577,229.001801 197.907547,214.418518 215.170074,204.153824 
M239.109314,241.401917 
	C239.570465,247.330643 242.965103,250.723389 248.512543,252.213730 
	C251.075439,252.902252 253.682388,253.433105 256.229034,254.174103 
	C259.141724,255.021637 261.523834,256.461853 261.003052,260.083862 
	C260.478912,263.728821 257.518860,264.905182 254.756302,264.288086 
	C250.446304,263.325287 246.367050,261.329437 241.574432,259.541687 
	C240.845306,260.425415 239.401382,262.175476 237.851013,264.054535 
	C243.637848,271.311707 251.053787,272.417206 259.158447,271.084534 
	C265.390015,270.059814 268.958405,266.048309 269.440643,260.027191 
	C269.950958,253.655365 267.010376,249.239868 260.676636,247.272491 
	C257.672119,246.339233 254.371826,246.182190 251.545547,244.915085 
	C249.767395,244.117905 248.619629,241.914627 247.189072,240.342178 
	C248.827225,238.947311 250.496017,236.353851 252.097458,236.394791 
	C256.027405,236.495239 259.926300,237.809784 264.602631,238.797455 
	C265.243896,237.915131 266.484863,236.207596 267.928894,234.220657 
	C262.225464,228.655716 255.547913,228.173492 248.452194,229.813431 
	C242.806259,231.118332 239.524292,234.660599 239.109314,241.401917 
M231.009567,245.501205 
	C231.009567,240.381744 231.009567,235.262283 231.009567,229.962250 
	C228.139969,229.962250 225.700119,229.962250 222.889603,229.962250 
	C222.889603,239.166214 223.147278,248.147980 222.716461,257.096619 
	C222.602463,259.464325 220.714554,263.302429 219.025757,263.674866 
	C216.475342,264.237366 213.329407,262.492554 210.555237,261.421082 
	C209.658676,261.074799 209.135345,259.762207 208.085083,258.444885 
	C206.892014,261.505096 201.453812,262.560974 205.202515,266.800049 
	C209.996307,272.220856 216.328293,272.318909 222.732941,270.809082 
	C227.754395,269.625336 230.564377,265.395721 230.902588,258.984711 
	C231.121658,254.832275 230.986191,250.661148 231.009567,245.501205 
z"/>
<path fill="#000100" opacity="1.000000" stroke="none" 
	d="
M81.282776,202.004288 
	C81.282867,196.407410 81.282867,191.309341 81.282867,184.794891 
	C91.050262,190.208450 100.025620,194.504303 108.294983,199.885132 
	C142.043060,221.844849 159.204391,253.369476 160.963623,293.408691 
	C161.504272,305.713989 160.945572,318.109283 162.178574,330.333466 
	C164.489716,353.246399 178.881699,367.210571 201.701248,369.501984 
	C210.998672,370.435577 220.104141,368.552429 228.269958,364.089020 
	C253.396576,350.354889 278.345551,336.295319 303.345551,322.329987 
	C313.665894,316.564880 324.119720,311.010651 334.196228,304.843262 
	C351.698212,294.131104 363.242126,278.977570 366.145844,258.275604 
	C369.126099,237.027679 361.524841,219.873962 343.256195,208.847809 
	C323.888855,197.158478 303.726471,186.773148 283.794159,176.035797 
	C231.463669,147.845886 179.068390,119.776276 126.706406,91.644814 
	C125.293076,90.885506 123.965134,89.967247 121.449303,88.414558 
	C128.625443,83.577454 134.750702,78.704384 141.519272,75.009949 
	C178.919022,54.596336 217.525848,54.062229 255.973175,70.893799 
	C276.498962,79.879623 295.901947,91.467857 315.655731,102.169495 
	C337.906097,114.223640 360.313721,126.040810 382.068207,138.946747 
	C441.238831,174.049942 462.915314,245.740280 433.859283,308.102722 
	C421.171936,335.333435 402.209412,357.240234 376.413971,372.303131 
	C339.473114,393.874359 302.302246,415.158295 264.324219,434.815643 
	C229.001541,453.098663 191.778793,455.261169 154.788651,439.114532 
	C116.574852,422.433716 94.072105,392.346313 85.220100,352.162018 
	C82.486351,339.752014 81.617287,326.744537 81.452835,313.990540 
	C80.973732,276.833527 81.282715,239.666306 81.282776,202.004288 
z"/>
<path fill="#F5FDF9" opacity="1.000000" stroke="none" 
	d="
M239.106354,240.996429 
	C239.524292,234.660599 242.806259,231.118332 248.452194,229.813431 
	C255.547913,228.173492 262.225464,228.655716 267.928894,234.220657 
	C266.484863,236.207596 265.243896,237.915131 264.602631,238.797455 
	C259.926300,237.809784 256.027405,236.495239 252.097458,236.394791 
	C250.496017,236.353851 248.827225,238.947311 247.189056,240.342163 
	C248.619629,241.914627 249.767395,244.117905 251.545547,244.915085 
	C254.371826,246.182190 257.672119,246.339233 260.676636,247.272491 
	C267.010376,249.239868 269.950958,253.655365 269.440643,260.027191 
	C268.958405,266.048309 265.390015,270.059814 259.158447,271.084534 
	C251.053787,272.417206 243.637848,271.311707 237.851013,264.054535 
	C239.401382,262.175476 240.845306,260.425415 241.574432,259.541687 
	C246.367050,261.329437 250.446304,263.325287 254.756302,264.288086 
	C257.518860,264.905182 260.478912,263.728821 261.003052,260.083862 
	C261.523834,256.461853 259.141724,255.021637 256.229034,254.174103 
	C253.682388,253.433105 251.075439,252.902252 248.512543,252.213730 
	C242.965103,250.723389 239.570465,247.330643 239.106354,240.996429 
z"/>
<path fill="#F9FEFC" opacity="1.000000" stroke="none" 
	d="
M231.009583,245.999786 
	C230.986191,250.661148 231.121658,254.832275 230.902588,258.984711 
	C230.564377,265.395721 227.754395,269.625336 222.732941,270.809082 
	C216.328293,272.318909 209.996307,272.220856 205.202515,266.800049 
	C201.453812,262.560974 206.892014,261.505096 208.085083,258.444885 
	C209.135345,259.762207 209.658676,261.074799 210.555237,261.421082 
	C213.329407,262.492554 216.475342,264.237366 219.025757,263.674866 
	C220.714554,263.302429 222.602463,259.464325 222.716461,257.096619 
	C223.147278,248.147980 222.889603,239.166214 222.889603,229.962250 
	C225.700119,229.962250 228.139969,229.962250 231.009567,229.962250 
	C231.009567,235.262283 231.009567,240.381744 231.009583,245.999786 
z"/>
</svg>